<mxfile host="app.diagrams.net" modified="2024-05-19T10:25:26.512Z" agent="Mozilla/5.0 (Windows NT 10.0; Win64; x64) AppleWebKit/537.36 (KHTML, like Gecko) Chrome/123.0.0.0 Safari/537.36 OPR/109.0.0.0 (Edition Yx GX 03)" etag="dFOombQfOmorAnZp4Wze" version="24.4.4" type="device">
  <diagram name="Страница — 1" id="h0X7KZuOgvX3J2JR2ard">
    <mxGraphModel dx="2220" dy="766" grid="1" gridSize="10" guides="1" tooltips="1" connect="1" arrows="1" fold="1" page="1" pageScale="1" pageWidth="827" pageHeight="1169" math="0" shadow="0">
      <root>
        <mxCell id="0" />
        <mxCell id="1" parent="0" />
        <mxCell id="63kz38ihZ2U63Aeos6Mr-1" value="" style="ellipse;whiteSpace=wrap;html=1;aspect=fixed;fillColor=#191919;" vertex="1" parent="1">
          <mxGeometry x="310" y="40" width="40" height="40" as="geometry" />
        </mxCell>
        <mxCell id="63kz38ihZ2U63Aeos6Mr-2" value="ActivityInitial" style="text;html=1;align=center;verticalAlign=middle;whiteSpace=wrap;rounded=0;" vertex="1" parent="1">
          <mxGeometry x="300" y="80" width="60" height="30" as="geometry" />
        </mxCell>
        <mxCell id="63kz38ihZ2U63Aeos6Mr-5" style="rounded=0;orthogonalLoop=1;jettySize=auto;html=1;entryX=1;entryY=0.5;entryDx=0;entryDy=0;endArrow=open;endFill=0;" edge="1" parent="1" source="63kz38ihZ2U63Aeos6Mr-3" target="63kz38ihZ2U63Aeos6Mr-4">
          <mxGeometry relative="1" as="geometry" />
        </mxCell>
        <mxCell id="63kz38ihZ2U63Aeos6Mr-9" style="edgeStyle=orthogonalEdgeStyle;rounded=0;orthogonalLoop=1;jettySize=auto;html=1;entryX=0.5;entryY=0;entryDx=0;entryDy=0;endArrow=open;endFill=0;" edge="1" parent="1" source="63kz38ihZ2U63Aeos6Mr-3" target="63kz38ihZ2U63Aeos6Mr-6">
          <mxGeometry relative="1" as="geometry" />
        </mxCell>
        <mxCell id="63kz38ihZ2U63Aeos6Mr-3" value="Получение заказа от клиента" style="rounded=1;whiteSpace=wrap;html=1;" vertex="1" parent="1">
          <mxGeometry x="225" y="140" width="210" height="60" as="geometry" />
        </mxCell>
        <mxCell id="63kz38ihZ2U63Aeos6Mr-10" style="rounded=0;orthogonalLoop=1;jettySize=auto;html=1;entryX=0;entryY=0.5;entryDx=0;entryDy=0;endArrow=open;endFill=0;" edge="1" parent="1" source="63kz38ihZ2U63Aeos6Mr-4" target="63kz38ihZ2U63Aeos6Mr-6">
          <mxGeometry relative="1" as="geometry" />
        </mxCell>
        <mxCell id="63kz38ihZ2U63Aeos6Mr-4" value="Заказ клиента" style="rounded=0;whiteSpace=wrap;html=1;" vertex="1" parent="1">
          <mxGeometry x="-60" y="180" width="120" height="60" as="geometry" />
        </mxCell>
        <mxCell id="63kz38ihZ2U63Aeos6Mr-15" style="rounded=0;orthogonalLoop=1;jettySize=auto;html=1;entryX=1;entryY=0.25;entryDx=0;entryDy=0;endArrow=open;endFill=0;" edge="1" parent="1" source="63kz38ihZ2U63Aeos6Mr-6" target="63kz38ihZ2U63Aeos6Mr-14">
          <mxGeometry relative="1" as="geometry" />
        </mxCell>
        <mxCell id="63kz38ihZ2U63Aeos6Mr-17" style="edgeStyle=orthogonalEdgeStyle;rounded=0;orthogonalLoop=1;jettySize=auto;html=1;entryX=0.5;entryY=0;entryDx=0;entryDy=0;" edge="1" parent="1" source="63kz38ihZ2U63Aeos6Mr-6" target="63kz38ihZ2U63Aeos6Mr-16">
          <mxGeometry relative="1" as="geometry" />
        </mxCell>
        <mxCell id="63kz38ihZ2U63Aeos6Mr-6" value="Проверка заказа" style="rounded=1;whiteSpace=wrap;html=1;" vertex="1" parent="1">
          <mxGeometry x="225" y="280" width="210" height="60" as="geometry" />
        </mxCell>
        <mxCell id="63kz38ihZ2U63Aeos6Mr-8" style="rounded=0;orthogonalLoop=1;jettySize=auto;html=1;entryX=1;entryY=0.5;entryDx=0;entryDy=0;endArrow=none;endFill=0;" edge="1" parent="1" source="63kz38ihZ2U63Aeos6Mr-7" target="63kz38ihZ2U63Aeos6Mr-3">
          <mxGeometry relative="1" as="geometry" />
        </mxCell>
        <mxCell id="63kz38ihZ2U63Aeos6Mr-52" style="rounded=0;orthogonalLoop=1;jettySize=auto;html=1;entryX=1;entryY=0.5;entryDx=0;entryDy=0;endArrow=open;endFill=0;" edge="1" parent="1" source="63kz38ihZ2U63Aeos6Mr-7" target="63kz38ihZ2U63Aeos6Mr-22">
          <mxGeometry relative="1" as="geometry" />
        </mxCell>
        <mxCell id="63kz38ihZ2U63Aeos6Mr-56" style="rounded=0;orthogonalLoop=1;jettySize=auto;html=1;entryX=1;entryY=0.5;entryDx=0;entryDy=0;endArrow=open;endFill=0;" edge="1" parent="1" source="63kz38ihZ2U63Aeos6Mr-7" target="63kz38ihZ2U63Aeos6Mr-37">
          <mxGeometry relative="1" as="geometry" />
        </mxCell>
        <mxCell id="63kz38ihZ2U63Aeos6Mr-7" value="Клиент" style="shape=umlActor;verticalLabelPosition=bottom;verticalAlign=top;html=1;outlineConnect=0;" vertex="1" parent="1">
          <mxGeometry x="650" y="270" width="30" height="60" as="geometry" />
        </mxCell>
        <mxCell id="63kz38ihZ2U63Aeos6Mr-12" style="rounded=0;orthogonalLoop=1;jettySize=auto;html=1;entryX=1;entryY=0.5;entryDx=0;entryDy=0;endArrow=none;endFill=0;" edge="1" parent="1" source="63kz38ihZ2U63Aeos6Mr-11" target="63kz38ihZ2U63Aeos6Mr-6">
          <mxGeometry relative="1" as="geometry" />
        </mxCell>
        <mxCell id="63kz38ihZ2U63Aeos6Mr-13" style="rounded=0;orthogonalLoop=1;jettySize=auto;html=1;entryX=1;entryY=0.75;entryDx=0;entryDy=0;endArrow=none;endFill=0;" edge="1" parent="1" source="63kz38ihZ2U63Aeos6Mr-11" target="63kz38ihZ2U63Aeos6Mr-3">
          <mxGeometry relative="1" as="geometry" />
        </mxCell>
        <mxCell id="63kz38ihZ2U63Aeos6Mr-19" style="rounded=0;orthogonalLoop=1;jettySize=auto;html=1;entryX=1;entryY=0.5;entryDx=0;entryDy=0;endArrow=open;endFill=0;" edge="1" parent="1" source="63kz38ihZ2U63Aeos6Mr-11" target="63kz38ihZ2U63Aeos6Mr-16">
          <mxGeometry relative="1" as="geometry" />
        </mxCell>
        <mxCell id="63kz38ihZ2U63Aeos6Mr-53" style="rounded=0;orthogonalLoop=1;jettySize=auto;html=1;entryX=1;entryY=0.5;entryDx=0;entryDy=0;" edge="1" parent="1" source="63kz38ihZ2U63Aeos6Mr-11" target="63kz38ihZ2U63Aeos6Mr-42">
          <mxGeometry relative="1" as="geometry" />
        </mxCell>
        <mxCell id="63kz38ihZ2U63Aeos6Mr-11" value="Менеджер по продажам" style="shape=umlActor;verticalLabelPosition=bottom;verticalAlign=top;html=1;outlineConnect=0;" vertex="1" parent="1">
          <mxGeometry x="650" y="510" width="30" height="60" as="geometry" />
        </mxCell>
        <mxCell id="63kz38ihZ2U63Aeos6Mr-18" style="rounded=0;orthogonalLoop=1;jettySize=auto;html=1;entryX=0;entryY=0.5;entryDx=0;entryDy=0;endArrow=classicThin;endFill=1;" edge="1" parent="1" source="63kz38ihZ2U63Aeos6Mr-14" target="63kz38ihZ2U63Aeos6Mr-16">
          <mxGeometry relative="1" as="geometry" />
        </mxCell>
        <mxCell id="63kz38ihZ2U63Aeos6Mr-14" value="Проверенный заказ" style="rounded=0;whiteSpace=wrap;html=1;" vertex="1" parent="1">
          <mxGeometry x="-50" y="370" width="120" height="60" as="geometry" />
        </mxCell>
        <mxCell id="63kz38ihZ2U63Aeos6Mr-21" style="rounded=0;orthogonalLoop=1;jettySize=auto;html=1;entryX=1;entryY=0.5;entryDx=0;entryDy=0;endArrow=open;endFill=0;exitX=0;exitY=1;exitDx=0;exitDy=0;" edge="1" parent="1" source="63kz38ihZ2U63Aeos6Mr-16" target="63kz38ihZ2U63Aeos6Mr-20">
          <mxGeometry relative="1" as="geometry" />
        </mxCell>
        <mxCell id="63kz38ihZ2U63Aeos6Mr-24" style="edgeStyle=orthogonalEdgeStyle;rounded=0;orthogonalLoop=1;jettySize=auto;html=1;entryX=0.5;entryY=0;entryDx=0;entryDy=0;" edge="1" parent="1" source="63kz38ihZ2U63Aeos6Mr-16" target="63kz38ihZ2U63Aeos6Mr-22">
          <mxGeometry relative="1" as="geometry" />
        </mxCell>
        <mxCell id="63kz38ihZ2U63Aeos6Mr-16" value="Формирование заказа" style="rounded=1;whiteSpace=wrap;html=1;" vertex="1" parent="1">
          <mxGeometry x="225" y="430" width="210" height="60" as="geometry" />
        </mxCell>
        <mxCell id="63kz38ihZ2U63Aeos6Mr-23" style="rounded=0;orthogonalLoop=1;jettySize=auto;html=1;entryX=0;entryY=0.5;entryDx=0;entryDy=0;endArrow=open;endFill=0;" edge="1" parent="1" source="63kz38ihZ2U63Aeos6Mr-20" target="63kz38ihZ2U63Aeos6Mr-22">
          <mxGeometry relative="1" as="geometry" />
        </mxCell>
        <mxCell id="63kz38ihZ2U63Aeos6Mr-20" value="Сформированный заказ" style="rounded=0;whiteSpace=wrap;html=1;" vertex="1" parent="1">
          <mxGeometry x="-50" y="560" width="120" height="60" as="geometry" />
        </mxCell>
        <mxCell id="63kz38ihZ2U63Aeos6Mr-26" style="rounded=0;orthogonalLoop=1;jettySize=auto;html=1;entryX=1;entryY=0.25;entryDx=0;entryDy=0;endArrow=open;endFill=0;" edge="1" parent="1" source="63kz38ihZ2U63Aeos6Mr-22" target="63kz38ihZ2U63Aeos6Mr-25">
          <mxGeometry relative="1" as="geometry" />
        </mxCell>
        <mxCell id="63kz38ihZ2U63Aeos6Mr-29" style="edgeStyle=orthogonalEdgeStyle;rounded=0;orthogonalLoop=1;jettySize=auto;html=1;entryX=0.5;entryY=0;entryDx=0;entryDy=0;" edge="1" parent="1" source="63kz38ihZ2U63Aeos6Mr-22" target="63kz38ihZ2U63Aeos6Mr-27">
          <mxGeometry relative="1" as="geometry" />
        </mxCell>
        <mxCell id="63kz38ihZ2U63Aeos6Mr-22" value="Оплата заказа" style="rounded=1;whiteSpace=wrap;html=1;" vertex="1" parent="1">
          <mxGeometry x="225" y="585" width="210" height="60" as="geometry" />
        </mxCell>
        <mxCell id="63kz38ihZ2U63Aeos6Mr-28" style="rounded=0;orthogonalLoop=1;jettySize=auto;html=1;entryX=0;entryY=0.5;entryDx=0;entryDy=0;endArrow=open;endFill=0;" edge="1" parent="1" source="63kz38ihZ2U63Aeos6Mr-25" target="63kz38ihZ2U63Aeos6Mr-27">
          <mxGeometry relative="1" as="geometry" />
        </mxCell>
        <mxCell id="63kz38ihZ2U63Aeos6Mr-25" value="Оплаченный заказ" style="rounded=0;whiteSpace=wrap;html=1;" vertex="1" parent="1">
          <mxGeometry x="-50" y="720" width="120" height="60" as="geometry" />
        </mxCell>
        <mxCell id="63kz38ihZ2U63Aeos6Mr-31" style="rounded=0;orthogonalLoop=1;jettySize=auto;html=1;entryX=1;entryY=0.25;entryDx=0;entryDy=0;endArrow=open;endFill=0;exitX=0;exitY=1;exitDx=0;exitDy=0;" edge="1" parent="1" source="63kz38ihZ2U63Aeos6Mr-27" target="63kz38ihZ2U63Aeos6Mr-30">
          <mxGeometry relative="1" as="geometry" />
        </mxCell>
        <mxCell id="63kz38ihZ2U63Aeos6Mr-34" style="edgeStyle=orthogonalEdgeStyle;rounded=0;orthogonalLoop=1;jettySize=auto;html=1;entryX=0.5;entryY=0;entryDx=0;entryDy=0;" edge="1" parent="1" source="63kz38ihZ2U63Aeos6Mr-27" target="63kz38ihZ2U63Aeos6Mr-32">
          <mxGeometry relative="1" as="geometry" />
        </mxCell>
        <mxCell id="63kz38ihZ2U63Aeos6Mr-27" value="Комплектация заказа" style="rounded=1;whiteSpace=wrap;html=1;" vertex="1" parent="1">
          <mxGeometry x="225" y="750" width="210" height="60" as="geometry" />
        </mxCell>
        <mxCell id="63kz38ihZ2U63Aeos6Mr-33" style="rounded=0;orthogonalLoop=1;jettySize=auto;html=1;entryX=0;entryY=0.5;entryDx=0;entryDy=0;endArrow=open;endFill=0;" edge="1" parent="1" source="63kz38ihZ2U63Aeos6Mr-30" target="63kz38ihZ2U63Aeos6Mr-32">
          <mxGeometry relative="1" as="geometry" />
        </mxCell>
        <mxCell id="63kz38ihZ2U63Aeos6Mr-30" value="Укомплектованный заказ" style="rounded=0;whiteSpace=wrap;html=1;" vertex="1" parent="1">
          <mxGeometry x="-50" y="890" width="120" height="60" as="geometry" />
        </mxCell>
        <mxCell id="63kz38ihZ2U63Aeos6Mr-36" style="rounded=0;orthogonalLoop=1;jettySize=auto;html=1;entryX=1;entryY=0.25;entryDx=0;entryDy=0;endArrow=open;endFill=0;" edge="1" parent="1" source="63kz38ihZ2U63Aeos6Mr-32" target="63kz38ihZ2U63Aeos6Mr-35">
          <mxGeometry relative="1" as="geometry" />
        </mxCell>
        <mxCell id="63kz38ihZ2U63Aeos6Mr-39" style="edgeStyle=orthogonalEdgeStyle;rounded=0;orthogonalLoop=1;jettySize=auto;html=1;entryX=0.5;entryY=0;entryDx=0;entryDy=0;" edge="1" parent="1" source="63kz38ihZ2U63Aeos6Mr-32" target="63kz38ihZ2U63Aeos6Mr-37">
          <mxGeometry relative="1" as="geometry" />
        </mxCell>
        <mxCell id="63kz38ihZ2U63Aeos6Mr-32" value="Доставка заказа" style="rounded=1;whiteSpace=wrap;html=1;" vertex="1" parent="1">
          <mxGeometry x="225" y="920" width="210" height="60" as="geometry" />
        </mxCell>
        <mxCell id="63kz38ihZ2U63Aeos6Mr-38" style="rounded=0;orthogonalLoop=1;jettySize=auto;html=1;entryX=0;entryY=0.5;entryDx=0;entryDy=0;endArrow=open;endFill=0;" edge="1" parent="1" source="63kz38ihZ2U63Aeos6Mr-35" target="63kz38ihZ2U63Aeos6Mr-37">
          <mxGeometry relative="1" as="geometry" />
        </mxCell>
        <mxCell id="63kz38ihZ2U63Aeos6Mr-35" value="Доставленный заказ" style="rounded=0;whiteSpace=wrap;html=1;" vertex="1" parent="1">
          <mxGeometry x="-50" y="1070" width="120" height="60" as="geometry" />
        </mxCell>
        <mxCell id="63kz38ihZ2U63Aeos6Mr-41" style="rounded=0;orthogonalLoop=1;jettySize=auto;html=1;entryX=1;entryY=0.25;entryDx=0;entryDy=0;endArrow=open;endFill=0;" edge="1" parent="1" source="63kz38ihZ2U63Aeos6Mr-37" target="63kz38ihZ2U63Aeos6Mr-40">
          <mxGeometry relative="1" as="geometry" />
        </mxCell>
        <mxCell id="63kz38ihZ2U63Aeos6Mr-48" style="edgeStyle=orthogonalEdgeStyle;rounded=0;orthogonalLoop=1;jettySize=auto;html=1;entryX=0.5;entryY=0;entryDx=0;entryDy=0;" edge="1" parent="1" source="63kz38ihZ2U63Aeos6Mr-37" target="63kz38ihZ2U63Aeos6Mr-42">
          <mxGeometry relative="1" as="geometry" />
        </mxCell>
        <mxCell id="63kz38ihZ2U63Aeos6Mr-37" value="Получение заказа" style="rounded=1;whiteSpace=wrap;html=1;" vertex="1" parent="1">
          <mxGeometry x="225" y="1070" width="210" height="60" as="geometry" />
        </mxCell>
        <mxCell id="63kz38ihZ2U63Aeos6Mr-44" style="rounded=0;orthogonalLoop=1;jettySize=auto;html=1;entryX=0;entryY=0.5;entryDx=0;entryDy=0;endArrow=open;endFill=0;" edge="1" parent="1" source="63kz38ihZ2U63Aeos6Mr-40" target="63kz38ihZ2U63Aeos6Mr-42">
          <mxGeometry relative="1" as="geometry" />
        </mxCell>
        <mxCell id="63kz38ihZ2U63Aeos6Mr-40" value="Полученный заказ" style="rounded=0;whiteSpace=wrap;html=1;" vertex="1" parent="1">
          <mxGeometry x="-50" y="1220" width="120" height="60" as="geometry" />
        </mxCell>
        <mxCell id="63kz38ihZ2U63Aeos6Mr-49" style="edgeStyle=orthogonalEdgeStyle;rounded=0;orthogonalLoop=1;jettySize=auto;html=1;entryX=0.5;entryY=0;entryDx=0;entryDy=0;" edge="1" parent="1" source="63kz38ihZ2U63Aeos6Mr-42" target="63kz38ihZ2U63Aeos6Mr-45">
          <mxGeometry relative="1" as="geometry" />
        </mxCell>
        <mxCell id="63kz38ihZ2U63Aeos6Mr-42" value="Закрытие заказа" style="rounded=1;whiteSpace=wrap;html=1;" vertex="1" parent="1">
          <mxGeometry x="225" y="1250" width="210" height="60" as="geometry" />
        </mxCell>
        <mxCell id="63kz38ihZ2U63Aeos6Mr-45" value="" style="ellipse;whiteSpace=wrap;html=1;aspect=fixed;" vertex="1" parent="1">
          <mxGeometry x="299.5" y="1380" width="60" height="60" as="geometry" />
        </mxCell>
        <mxCell id="63kz38ihZ2U63Aeos6Mr-46" value="" style="ellipse;whiteSpace=wrap;html=1;aspect=fixed;fillColor=#171717;" vertex="1" parent="1">
          <mxGeometry x="309.5" y="1390" width="40" height="40" as="geometry" />
        </mxCell>
        <mxCell id="63kz38ihZ2U63Aeos6Mr-47" value="ActivityFinal" style="text;html=1;align=center;verticalAlign=middle;whiteSpace=wrap;rounded=0;" vertex="1" parent="1">
          <mxGeometry x="304.5" y="1440" width="60" height="30" as="geometry" />
        </mxCell>
        <mxCell id="63kz38ihZ2U63Aeos6Mr-51" style="rounded=0;orthogonalLoop=1;jettySize=auto;html=1;entryX=1;entryY=0.5;entryDx=0;entryDy=0;endArrow=open;endFill=0;" edge="1" parent="1" source="63kz38ihZ2U63Aeos6Mr-50" target="63kz38ihZ2U63Aeos6Mr-27">
          <mxGeometry relative="1" as="geometry" />
        </mxCell>
        <mxCell id="63kz38ihZ2U63Aeos6Mr-50" value="Менеджер по складу" style="shape=umlActor;verticalLabelPosition=bottom;verticalAlign=top;html=1;outlineConnect=0;" vertex="1" parent="1">
          <mxGeometry x="660" y="750" width="30" height="60" as="geometry" />
        </mxCell>
        <mxCell id="63kz38ihZ2U63Aeos6Mr-55" style="rounded=0;orthogonalLoop=1;jettySize=auto;html=1;entryX=1;entryY=0.5;entryDx=0;entryDy=0;" edge="1" parent="1" source="63kz38ihZ2U63Aeos6Mr-54" target="63kz38ihZ2U63Aeos6Mr-32">
          <mxGeometry relative="1" as="geometry" />
        </mxCell>
        <mxCell id="63kz38ihZ2U63Aeos6Mr-54" value="Транспортная компания" style="shape=umlActor;verticalLabelPosition=bottom;verticalAlign=top;html=1;outlineConnect=0;" vertex="1" parent="1">
          <mxGeometry x="650" y="1050" width="30" height="60" as="geometry" />
        </mxCell>
      </root>
    </mxGraphModel>
  </diagram>
</mxfile>
